<svg xmlns="http://www.w3.org/2000/svg" xmlns:xlink="http://www.w3.org/1999/xlink" width="500" zoomAndPan="magnify" viewBox="0 0 375 119.999999" height="160" preserveAspectRatio="xMidYMid meet" version="1.0"><defs><g/></defs><g fill="#000000" fill-opacity="1"><g transform="translate(0.0320625, 90.777775)"><g><path d="M 38.28125 -38.359375 L 38.28125 -8.8125 C 38.28125 -7.96875 38.425781 -7.382812 38.71875 -7.0625 C 39.007812 -6.75 39.523438 -6.566406 40.265625 -6.515625 L 42.8125 -6.359375 L 42.8125 0 L 30.1875 0 L 30.1875 -4.609375 L 29.9375 -4.6875 C 27.289062 -0.875 23.664062 1.03125 19.0625 1.03125 C 13.65625 1.03125 9.65625 -0.6875 7.0625 -4.125 C 4.46875 -7.570312 3.171875 -12.285156 3.171875 -18.265625 C 3.171875 -25.460938 4.914062 -31.070312 8.40625 -35.09375 C 11.90625 -39.125 17.148438 -41.140625 24.140625 -41.140625 C 28.640625 -41.140625 33.351562 -40.210938 38.28125 -38.359375 Z M 29.0625 -12.625 L 29.0625 -33.203125 C 27.582031 -33.890625 25.546875 -34.234375 22.953125 -34.234375 C 19.398438 -34.234375 16.828125 -32.800781 15.234375 -29.9375 C 13.648438 -27.082031 12.859375 -23.296875 12.859375 -18.578125 C 12.859375 -10.003906 15.613281 -5.71875 21.125 -5.71875 C 23.457031 -5.71875 25.363281 -6.414062 26.84375 -7.8125 C 28.320312 -9.21875 29.0625 -10.820312 29.0625 -12.625 Z M 29.0625 -12.625 "/></g></g></g><g fill="#000000" fill-opacity="1"><g transform="translate(45.05923, 90.777775)"><g><path d="M 44.71875 -6.28125 L 44.71875 0 L 31.84375 0 L 31.84375 -5.15625 C 28.9375 -1.03125 24.648438 1.03125 18.984375 1.03125 C 10.773438 1.03125 6.671875 -3.546875 6.671875 -12.703125 L 6.671875 -31.046875 C 6.671875 -32.484375 6.007812 -33.226562 4.6875 -33.28125 L 2.140625 -33.4375 L 2.140625 -39.953125 L 16.125 -39.953125 L 16.125 -14.765625 C 16.125 -11.960938 16.519531 -9.847656 17.3125 -8.421875 C 18.101562 -6.992188 19.742188 -6.28125 22.234375 -6.28125 C 24.722656 -6.28125 26.722656 -7.046875 28.234375 -8.578125 C 29.742188 -10.109375 30.5 -11.960938 30.5 -14.140625 L 30.5 -30.890625 C 30.5 -31.742188 30.351562 -32.34375 30.0625 -32.6875 C 29.769531 -33.03125 29.253906 -33.226562 28.515625 -33.28125 L 25.96875 -33.4375 L 25.96875 -39.953125 L 39.953125 -39.953125 L 39.953125 -8.8125 C 39.953125 -7.96875 40.082031 -7.398438 40.34375 -7.109375 C 40.613281 -6.816406 41.144531 -6.617188 41.9375 -6.515625 Z M 44.71875 -6.28125 "/></g></g></g><g fill="#000000" fill-opacity="1"><g transform="translate(91.992305, 90.777775)"><g><path d="M 11.4375 -48.375 L 16.59375 -48.375 L 16.59375 -39.953125 L 27.15625 -39.953125 L 26.375 -33.28125 L 16.59375 -33.28125 L 16.59375 -12.390625 C 16.59375 -10.054688 17.015625 -8.425781 17.859375 -7.5 C 18.710938 -6.570312 20.023438 -6.109375 21.796875 -6.109375 C 23.578125 -6.109375 25.363281 -6.664062 27.15625 -7.78125 L 29.546875 -1.671875 C 26.898438 0.179688 23.535156 1.109375 19.453125 1.109375 C 17.078125 1.109375 15.066406 0.800781 13.421875 0.1875 C 11.773438 -0.414062 10.554688 -1.085938 9.765625 -1.828125 C 8.972656 -2.566406 8.363281 -3.648438 7.9375 -5.078125 C 7.519531 -6.515625 7.28125 -7.640625 7.21875 -8.453125 C 7.164062 -9.273438 7.140625 -10.484375 7.140625 -12.078125 L 7.140625 -33.28125 L 1.515625 -33.28125 L 2.296875 -39.078125 C 4.785156 -39.285156 6.664062 -40.171875 7.9375 -41.734375 C 9.207031 -43.296875 10.375 -45.507812 11.4375 -48.375 Z M 11.4375 -48.375 "/></g></g></g><g fill="#000000" fill-opacity="1"><g transform="translate(121.931008, 90.777775)"><g><path d="M 20.890625 -5.796875 C 26.660156 -5.796875 29.546875 -10.457031 29.546875 -19.78125 C 29.546875 -24.488281 28.894531 -28.0625 27.59375 -30.5 C 26.300781 -32.9375 24.128906 -34.15625 21.078125 -34.15625 C 18.035156 -34.15625 15.800781 -32.988281 14.375 -30.65625 C 12.945312 -28.320312 12.234375 -25.144531 12.234375 -21.125 C 12.234375 -13.65625 13.609375 -8.96875 16.359375 -7.0625 C 17.578125 -6.21875 19.085938 -5.796875 20.890625 -5.796875 Z M 2.625 -20.015625 C 2.625 -23.929688 3.203125 -27.332031 4.359375 -30.21875 C 5.523438 -33.101562 7.085938 -35.316406 9.046875 -36.859375 C 12.804688 -39.710938 16.960938 -41.140625 21.515625 -41.140625 C 24.691406 -41.140625 27.378906 -40.625 29.578125 -39.59375 C 31.773438 -38.5625 33.492188 -37.367188 34.734375 -36.015625 C 35.984375 -34.671875 37.046875 -32.710938 37.921875 -30.140625 C 38.796875 -27.566406 39.234375 -24.535156 39.234375 -21.046875 C 39.234375 -13.742188 37.457031 -8.210938 33.90625 -4.453125 C 30.363281 -0.691406 25.828125 1.1875 20.296875 1.1875 C 14.765625 1.1875 10.4375 -0.597656 7.3125 -4.171875 C 4.1875 -7.742188 2.625 -13.023438 2.625 -20.015625 Z M 2.625 -20.015625 "/></g></g></g><g fill="#000000" fill-opacity="1"><g transform="translate(163.861065, 90.777775)"><g><path d="M 2.546875 0 L 2.546875 -6.4375 L 5.15625 -6.671875 C 6.695312 -6.828125 7.46875 -7.566406 7.46875 -8.890625 L 7.46875 -45.828125 L 2.9375 -46.0625 L 2.9375 -52.8125 L 24.625 -52.8125 C 30.757812 -52.8125 35.46875 -51.671875 38.75 -49.390625 C 42.039062 -47.117188 43.6875 -43.390625 43.6875 -38.203125 C 43.6875 -34.597656 42.742188 -31.628906 40.859375 -29.296875 C 38.984375 -26.972656 36.75 -25.28125 34.15625 -24.21875 C 36.0625 -23.53125 37.566406 -21.914062 38.671875 -19.375 L 44.390625 -6.90625 L 48.921875 -6.75 L 48.921875 0 L 29.3125 0 L 29.3125 -6.4375 L 31.609375 -6.671875 C 32.828125 -6.828125 33.4375 -7.300781 33.4375 -8.09375 C 33.4375 -8.414062 33.332031 -8.789062 33.125 -9.21875 L 29.390625 -17.15625 C 28.804688 -18.476562 28.15625 -19.414062 27.4375 -19.96875 C 26.726562 -20.53125 25.707031 -20.8125 24.375 -20.8125 L 17.15625 -20.8125 L 17.15625 -6.984375 L 22.3125 -6.75 L 22.3125 0 Z M 17.15625 -28.359375 L 24.0625 -28.359375 C 30.570312 -28.359375 33.828125 -31.269531 33.828125 -37.09375 C 33.828125 -40.425781 32.96875 -42.59375 31.25 -43.59375 C 29.53125 -44.601562 26.765625 -45.109375 22.953125 -45.109375 L 17.15625 -45.109375 Z M 17.15625 -28.359375 "/></g></g></g><g fill="#000000" fill-opacity="1"><g transform="translate(213.573607, 90.777775)"><g><path d="M 5.40625 -8.890625 L 18.1875 -45.90625 L 13.1875 -46.375 L 13.1875 -52.8125 L 31.375 -52.8125 L 47.578125 -6.984375 L 47.65625 -6.984375 L 52.1875 -6.75 L 52.1875 0 L 31.6875 0 L 31.6875 -6.4375 L 34.703125 -6.671875 C 35.609375 -6.773438 36.21875 -6.984375 36.53125 -7.296875 C 36.851562 -7.617188 36.878906 -8.203125 36.609375 -9.046875 L 34.953125 -13.984375 L 16.359375 -13.984375 L 13.984375 -6.984375 L 18.75 -6.75 L 18.75 0 L 0.390625 0 L 0.390625 -6.4375 L 3.015625 -6.671875 C 4.128906 -6.773438 4.925781 -7.515625 5.40625 -8.890625 Z M 25.65625 -43.921875 L 18.265625 -21.28125 L 33.046875 -21.28125 L 25.890625 -43.921875 Z M 25.65625 -43.921875 "/></g></g></g><g fill="#000000" fill-opacity="1"><g transform="translate(266.145, 90.777775)"><g><path d="M 2.546875 0 L 2.546875 -6.4375 L 5.40625 -6.671875 C 6.78125 -6.773438 7.46875 -7.515625 7.46875 -8.890625 L 7.46875 -45.828125 L 2.9375 -46.0625 L 2.9375 -52.8125 L 17.234375 -52.8125 L 39.703125 -16.359375 L 39.875 -16.359375 L 39.875 -45.828125 L 34.625 -46.0625 L 34.625 -52.8125 L 54 -52.8125 L 54 -46.375 L 51.140625 -46.140625 C 49.867188 -46.035156 49.234375 -45.21875 49.234375 -43.6875 L 49.234375 0 L 39.953125 0 L 17 -37.015625 L 16.84375 -37.015625 L 16.84375 -6.984375 L 22 -6.75 L 22 0 Z M 2.546875 0 "/></g></g></g><g fill="#000000" fill-opacity="1"><g transform="translate(322.131163, 90.777775)"><g><path d="M 2.703125 0 L 2.703125 -6.4375 L 5.328125 -6.671875 C 6.859375 -6.828125 7.625 -7.566406 7.625 -8.890625 L 7.625 -45.828125 L 3.09375 -46.0625 L 3.09375 -52.8125 L 24.859375 -52.8125 C 32.640625 -52.8125 38.710938 -50.742188 43.078125 -46.609375 C 47.453125 -42.484375 49.640625 -36.375 49.640625 -28.28125 C 49.640625 -23.25 48.976562 -18.863281 47.65625 -15.125 C 46.332031 -11.394531 44.53125 -8.472656 42.25 -6.359375 C 37.695312 -2.117188 32.03125 0 25.25 0 Z M 17.3125 -45.109375 L 17.3125 -7.625 L 25.421875 -7.625 C 29.972656 -7.625 33.519531 -9.265625 36.0625 -12.546875 C 38.601562 -15.828125 39.875 -20.59375 39.875 -26.84375 C 39.875 -39.019531 34.707031 -45.109375 24.375 -45.109375 Z M 17.3125 -45.109375 "/></g></g></g></svg>